<svg width="37" height="44" viewBox="0 0 37 44" fill="none" xmlns="http://www.w3.org/2000/svg">
<path d="M19.5 15.584V17.084C19.5 17.3601 19.7239 17.584 20 17.584H24C24.2761 17.584 24.5 17.3601 24.5 17.084V15.584" stroke="#C8A27A" stroke-width="1.5" stroke-linecap="round"/>
<path d="M27.5 18.584V20.084C27.5 20.3601 27.2761 20.584 27 20.584H16.7831C16.6075 20.584 16.4447 20.4918 16.3543 20.3412L15.4543 18.8412C15.2544 18.508 15.4944 18.084 15.8831 18.084H27C27.2761 18.084 27.5 18.3078 27.5 18.584Z" stroke="#C8A27A" stroke-width="1.5" stroke-linecap="round"/>
<path d="M15 27.084H29" stroke="#C8A27A" stroke-width="1.5" stroke-linecap="round"/>
<path d="M16 21.584V22.584C16 23.1363 16.4464 23.584 16.9986 23.584H30.5C31 23.584 32.5 26.084 32.5 28.084C32.5 30.084 35 30.084 35 28.084C35 24.356 32.9732 21.7861 31.7531 20.7792C31.5923 20.6466 31.388 20.584 31.1795 20.584H17C16.4477 20.584 16 21.0317 16 21.584Z" stroke="#C8A27A" stroke-width="1.5" stroke-linecap="round"/>
<path d="M16.75 1.58398H30.5C31.6046 1.58398 32.5 2.47941 32.5 3.58398V5.08398M16.75 1.58398H3C1.89543 1.58398 1 2.47941 1 3.58398V39.084M16.75 1.58398V5.08398M16.75 15.084H12.5C11.3954 15.084 10.5 15.9794 10.5 17.084V33.584C10.5 34.6886 11.3954 35.584 12.5 35.584H33.5C34.6046 35.584 35.5 36.4794 35.5 37.584V39.084M16.75 15.084H24.5C28.9183 15.084 32.5 11.5023 32.5 7.08398V5.08398M16.75 15.084V5.08398M16.75 5.08398H32.5M1 39.084V40.584C1 41.6886 1.89543 42.584 3 42.584H33.5C34.6046 42.584 35.5 41.6886 35.5 40.584V39.084M1 39.084H35.5" stroke="#C8A27A" stroke-width="1.5" stroke-linecap="round"/>
<path d="M27.0316 23.584H16.777C16.5957 23.584 16.416 23.6296 16.2738 23.742C15.3984 24.4341 14 26.42 14 30.084C14 33.8629 15.19 35.2618 15.8837 35.5454C15.9594 35.5764 16.0389 35.584 16.1207 35.584H27.5C29.5 35.584 30 33.584 30 30.084C30 27.8427 28.6604 25.1995 27.7827 23.9559C27.6116 23.7134 27.3284 23.584 27.0316 23.584Z" stroke="#C8A27A" stroke-width="1.5" stroke-linecap="round"/>
<circle cx="6" cy="16.084" r="1.5" stroke="#C8A27A"/>
<circle cx="6" cy="21.084" r="1.5" stroke="#C8A27A"/>
<rect x="4.5" y="24.584" width="3" height="6" rx="1.5" stroke="#C8A27A"/>
</svg>
