<svg width="44" height="44" viewBox="0 0 44 44" fill="none" xmlns="http://www.w3.org/2000/svg">
<path d="M31.5 22.084C31.5 24.584 32 28.084 28.5 31.584" stroke="#C8A27A" stroke-width="1.5" stroke-linecap="round"/>
<path d="M36 19.084H43V25.584C43 27.584 40.8 31.584 34 31.584" stroke="#C8A27A" stroke-width="1.5" stroke-linecap="round"/>
<path d="M35.1111 22.084H39V24.584C39 25.704 38.7778 28.084 35 28.084" stroke="#C8A27A" stroke-width="1.5" stroke-linecap="round"/>
<path d="M12.8817 11.4328C12.5221 11.6383 12.3971 12.0965 12.6026 12.4561C12.8081 12.8157 13.2663 12.9407 13.6259 12.7352L12.8817 11.4328ZM14.2841 2.61431C14.577 2.32142 14.577 1.84655 14.2841 1.55365C13.9913 1.26076 13.5164 1.26076 13.2235 1.55365L14.2841 2.61431ZM13.6259 12.7352C14.3023 12.3487 15.1985 11.5872 15.6356 10.5177C16.1022 9.37589 15.9946 8.0014 14.83 6.60385L13.6777 7.56412C14.513 8.56657 14.4888 9.35875 14.2471 9.95027C13.9758 10.6141 13.372 11.1527 12.8817 11.4328L13.6259 12.7352ZM14.83 6.60385C13.9319 5.52611 13.7216 4.62219 13.753 3.97C13.7854 3.29609 14.078 2.82049 14.2841 2.61431L13.2235 1.55365C12.763 2.01414 12.3056 2.83854 12.2547 3.89797C12.2027 4.97911 12.5758 6.24186 13.6777 7.56412L14.83 6.60385Z" fill="#C8A27A"/>
<path d="M17.8817 10.4328C17.5221 10.6383 17.3971 11.0965 17.6026 11.4561C17.8081 11.8157 18.2663 11.9407 18.6259 11.7352L17.8817 10.4328ZM19.2841 1.61431C19.577 1.32142 19.577 0.846548 19.2841 0.553654C18.9913 0.260761 18.5164 0.260761 18.2235 0.553654L19.2841 1.61431ZM18.6259 11.7352C19.3023 11.3487 20.1985 10.5872 20.6356 9.5177C21.1022 8.37589 20.9946 7.0014 19.83 5.60385L18.6777 6.56412C19.513 7.56657 19.4888 8.35875 19.2471 8.95027C18.9758 9.61408 18.372 10.1527 17.8817 10.4328L18.6259 11.7352ZM19.83 5.60385C18.9319 4.52611 18.7216 3.62219 18.753 2.97C18.7854 2.29609 19.078 1.82049 19.2841 1.61431L18.2235 0.553654C17.763 1.01414 17.3056 1.83854 17.2547 2.89797C17.2027 3.97911 17.5758 5.24186 18.6777 6.56412L19.83 5.60385Z" fill="#C8A27A"/>
<path d="M22.8817 11.4328C22.5221 11.6383 22.3971 12.0965 22.6026 12.4561C22.8081 12.8157 23.2663 12.9407 23.6259 12.7352L22.8817 11.4328ZM24.2841 2.61431C24.577 2.32142 24.577 1.84655 24.2841 1.55365C23.9913 1.26076 23.5164 1.26076 23.2235 1.55365L24.2841 2.61431ZM23.6259 12.7352C24.3023 12.3487 25.1985 11.5872 25.6356 10.5177C26.1022 9.37589 25.9946 8.0014 24.83 6.60385L23.6777 7.56412C24.513 8.56657 24.4888 9.35875 24.2471 9.95027C23.9758 10.6141 23.372 11.1527 22.8817 11.4328L23.6259 12.7352ZM24.83 6.60385C23.9319 5.52611 23.7216 4.62219 23.753 3.97C23.7854 3.29609 24.078 2.82049 24.2841 2.61431L23.2235 1.55365C22.763 2.01414 22.3056 2.83854 22.2547 3.89797C22.2027 4.97911 22.5758 6.24186 23.6777 7.56412L24.83 6.60385Z" fill="#C8A27A"/>
<path d="M1 38.084V37.334H0.25V38.084H1ZM36 38.084H36.75V37.334H36V38.084ZM5 42.584L5.0163 41.8342L5.00815 41.834H5V42.584ZM1 38.834H36V37.334H1V38.834ZM35.25 38.084C35.25 38.6283 35.0806 39.504 34.5742 40.2706C34.0862 41.0094 33.2743 41.6689 31.907 41.8398L32.093 43.3282C33.9257 43.0991 35.1138 42.1752 35.8258 41.0974C36.5194 40.0473 36.75 38.873 36.75 38.084H35.25ZM31.907 41.8398C30.3682 42.0321 25.5976 42.0758 20.1791 42.0465C14.7926 42.0174 8.84686 41.9174 5.0163 41.8342L4.9837 43.3338C8.8198 43.4172 14.7741 43.5173 20.1709 43.5465C25.5357 43.5755 30.4318 43.5358 32.093 43.3282L31.907 41.8398ZM5 41.834C4.47271 41.834 3.64862 41.6492 2.97207 41.1012C2.32729 40.5789 1.75 39.6747 1.75 38.084H0.25C0.25 40.0933 1.00604 41.4391 2.02793 42.2668C3.01805 43.0688 4.19395 43.334 5 43.334V41.834Z" fill="#C8A27A"/>
<path d="M17 16.334C16.5858 16.334 16.25 16.6698 16.25 17.084C16.25 17.4982 16.5858 17.834 17 17.834V16.334ZM35 17.084H35.75V16.334H35V17.084ZM35 24.584L34.25 24.584L35 24.584ZM25.3282 37.3539C24.925 37.4488 24.6751 37.8526 24.7699 38.2558C24.8648 38.659 25.2686 38.9089 25.6718 38.814L25.3282 37.3539ZM17 17.834H35V16.334H17V17.834ZM34.25 17.084V24.584H35.75V17.084H34.25ZM34.25 24.584C34.25 27.7377 33.5941 30.5583 32.1699 32.7647C30.7566 34.9542 28.5514 36.5955 25.3282 37.3539L25.6718 38.814C29.2486 37.9724 31.7934 36.1138 33.4301 33.5782C35.0559 31.0597 35.75 27.9303 35.75 24.584L34.25 24.584Z" fill="#C8A27A"/>
<path d="M9 16.334C9.41421 16.334 9.75 16.6698 9.75 17.084C9.75 17.4982 9.41421 17.834 9 17.834V16.334ZM2 17.084H1.25V16.334H2V17.084ZM2 24.584L2.75 24.584L2 24.584ZM11.6718 37.3539C12.075 37.4488 12.3249 37.8526 12.2301 38.2558C12.1352 38.659 11.7314 38.9089 11.3282 38.814L11.6718 37.3539ZM9 17.834H2V16.334H9V17.834ZM2.75 17.084V24.584H1.25V17.084H2.75ZM2.75 24.584C2.75 27.7377 3.40586 30.5583 4.83012 32.7647C6.2434 34.9542 8.44862 36.5955 11.6718 37.3539L11.3282 38.814C7.75138 37.9724 5.2066 36.1138 3.56988 33.5782C1.94414 31.0597 1.25 27.9303 1.25 24.584L2.75 24.584Z" fill="#C8A27A"/>
<path d="M14 17.084C14 17.6363 13.5523 18.084 13 18.084C12.4477 18.084 12 17.6363 12 17.084C12 16.5317 12.4477 16.084 13 16.084C13.5523 16.084 14 16.5317 14 17.084Z" fill="#C8A27A"/>
<path d="M27 33.084C27 33.6363 26.5523 34.084 26 34.084C25.4477 34.084 25 33.6363 25 33.084C25 32.5317 25.4477 32.084 26 32.084C26.5523 32.084 27 32.5317 27 33.084Z" fill="#C8A27A"/>
</svg>
