<svg width="37" height="46" viewBox="0 0 37 46" fill="none" xmlns="http://www.w3.org/2000/svg">
<path d="M4 6.08398H20" stroke="#C8A27A" stroke-width="1.5" stroke-linecap="round"/>
<path d="M23 6.08398L26 6.08398" stroke="#C8A27A" stroke-width="1.5" stroke-linecap="round"/>
<path d="M16.3252 28.584C17.5001 29.084 18.7252 32.584 16.3252 32.584C13.9252 32.584 15.5 29.084 16.3252 28.584Z" stroke="#C8A27A" stroke-linecap="round"/>
<path d="M4 35.584C8.17391 35.584 7.75652 34.084 10.2609 34.084C13.3913 34.084 12.3478 36.084 16 36.084C19.6522 36.084 18.6087 34.084 21.7391 34.084C24.8696 34.084 23.3043 35.584 28 35.584" stroke="#C8A27A" stroke-width="1.5" stroke-linecap="round"/>
<path d="M29 38.584C30.8333 38.584 34.7 37.684 35.5 34.084C36.5 29.584 35 21.084 26 24.584" stroke="#C8A27A" stroke-width="1.5" stroke-linecap="round"/>
<path d="M11 22.084L11.4971 23.3268C11.8008 24.0861 12.5363 24.584 13.3541 24.584H17.6775C18.4794 24.584 19.2038 24.105 19.5178 23.3671L27.8157 3.86709C28.377 2.54794 27.409 1.08398 25.9754 1.08398H5C3.57284 1.08398 2.60494 2.53584 3.15385 3.85322L9.5 19.084" stroke="#C8A27A" stroke-width="1.5" stroke-linecap="round"/>
<path d="M25 19.584H7L2 44.584H30L25 19.584Z" stroke="#C8A27A" stroke-width="1.5" stroke-linecap="round"/>
<path d="M5.5 25.584L1.64638 22.1585C1.3589 21.903 1.45555 21.4321 1.82045 21.3105L7 19.584" stroke="#C8A27A" stroke-width="1.5" stroke-linecap="round"/>
</svg>
