<svg width="47" height="45" viewBox="0 0 47 45" fill="none" xmlns="http://www.w3.org/2000/svg">
<path d="M39.2543 18.2506L38.6954 18.7507L39.2543 18.2506ZM6.74567 18.2506L6.18674 17.7505L6.74567 18.2506ZM7.3046 18.7507L18.3422 6.41449L17.2244 5.4143L6.18674 17.7505L7.3046 18.7507ZM27.6578 6.4145L38.6954 18.7507L39.8133 17.7505L28.7756 5.41431L27.6578 6.4145ZM38.8817 18.334H7.11829V19.834H38.8817V18.334ZM38.6954 18.7507C38.5513 18.5896 38.6656 18.334 38.8817 18.334V19.834C39.9622 19.834 40.5337 18.5557 39.8133 17.7505L38.6954 18.7507ZM18.3422 6.41449C20.8267 3.63778 25.1733 3.63779 27.6578 6.4145L28.7756 5.41431C25.6949 1.97119 20.3051 1.97118 17.2244 5.4143L18.3422 6.41449ZM6.18674 17.7505C5.46627 18.5557 6.03781 19.834 7.11829 19.834V18.334C7.33439 18.334 7.4487 18.5896 7.3046 18.7507L6.18674 17.7505Z" fill="#C8A27A"/>
<path d="M10 30.084L15.5 24.584" stroke="#C8A27A" stroke-width="2" stroke-linecap="round"/>
<path d="M13 33.584L18.5 28.084" stroke="#C8A27A" stroke-width="2" stroke-linecap="round"/>
<path d="M3.75 24.834H43.25V36.084C43.25 40.088 40.0041 43.334 36 43.334H11C6.99594 43.334 3.75 40.088 3.75 36.084V24.834Z" stroke="#C8A27A" stroke-width="1.5"/>
<rect x="1" y="19.084" width="45" height="5" rx="2.5" stroke="#C8A27A" stroke-width="2"/>
<circle cx="21" cy="10.084" r="1" fill="#C8A27A"/>
<circle cx="18" cy="14.084" r="1" fill="#C8A27A"/>
<circle cx="22" cy="14.084" r="1" fill="#C8A27A"/>
</svg>
