<svg width="132" height="34" viewBox="0 0 132 34" fill="none" xmlns="http://www.w3.org/2000/svg">
<path d="M12.2227 2.5232C12.2227 1.90827 11.5668 0.752212 8.94314 1.04738C5.66354 1.41633 0.334186 4.36798 3.61379 7.68858C6.89339 11.0092 13.8626 15.8056 10.1731 19.8641C7.22141 23.1109 3.2039 22.8685 1.97405 22.0778C1.0175 21.4629 -0.0757041 19.7903 3.2039 18.0193C6.4835 16.2483 11.9495 14.0838 14.2725 13.2229" stroke="white" stroke-width="1.5" stroke-linecap="round"/>
<path d="M15.3482 17.972C16.0315 17.6031 17.234 16.57 16.5781 15.3893C15.9222 14.2087 14.5283 15.0204 14.5283 16.4962C14.5283 17.3571 14.9383 18.9313 16.5781 18.341C18.2179 17.7507 20.131 16.2502 20.6776 15.7583" stroke="white" stroke-width="1.5" stroke-linecap="round"/>
<path d="M26.8269 14.6514C25.7337 14.4054 23.1373 14.1349 21.4975 15.0203C19.4478 16.1272 19.4478 19.4478 22.3174 18.7099C25.1871 17.972 29.2865 14.6514 30.1064 11.6998C30.7623 9.33844 30.3797 7.02632 30.1064 6.16542C29.4232 4.6896 27.8108 2.62345 26.8269 6.16542C26.4168 10.5929 27.2367 16.4962 28.0566 18.3409C28.8765 20.1857 31.7462 27.5648 39.5353 27.1959C47.3243 26.8269 53.8835 24.2442 57.1631 26.089C60.4427 27.9338 56.3432 28.3027 53.0636 28.6717C49.784 29.0407 50.194 30.8854 54.2935 30.5165C57.5731 30.2213 59.7595 31.1314 60.4427 31.6233" stroke="white" stroke-width="1.5" stroke-linecap="round"/>
<path d="M31.7463 15.7582C31.3364 20.5546 35.4359 16.865 35.4359 16.865C35.4359 16.865 36.2558 19.5953 37.8956 18.7098C39.5354 17.8243 40.6286 17.48 41.1752 17.234" stroke="white" stroke-width="1.5" stroke-linecap="round"/>
<path d="M40.7651 4.68958C41.7217 4.07465 43.4708 3.7303 42.8149 7.27227C41.995 11.6997 39.9452 20.5546 42.8149 17.234C45.1106 14.5776 46.7777 15.6352 47.3243 16.4961C47.7343 17.234 48.5542 19.0788 50.6039 17.9719" stroke="white" stroke-width="1.5" stroke-linecap="round"/>
<path d="M53.8835 15.0204C52.927 15.1434 50.9319 15.6845 50.6039 16.8652C50.194 18.341 52.2437 19.0789 53.0636 17.6031L53.4736 16.8652C53.3369 17.6031 53.0636 18.7099 53.8835 18.7099C54.6169 18.7099 56.3432 17.6031 57.1631 17.2341" stroke="white" stroke-width="1.5" stroke-linecap="round"/>
<path d="M57.5732 14.2825V19.0789C57.9832 18.341 61.5088 13.9135 62.4926 15.3893C63.7225 17.2341 63.7225 20.9237 66.5921 18.341" stroke="white" stroke-width="1.5" stroke-linecap="round"/>
<path d="M85.8596 22.9072C86.5429 17.0039 89.6223 4.92291 95.2885 1.87676C98.9781 -0.106799 100.001 3.58275 98.5681 5.56631C96.1085 8.97194 90.861 13.3144 81.3501 14.7902C71.8393 16.266 74.9276 20.3245 77.6606 22.1693C79.6414 23.5063 84.1379 25.0472 80.5303 27.7036C76.9228 30.3601 76.2942 32.0081 76.4308 32.5001" stroke="white" stroke-width="1.5" stroke-linecap="round"/>
<path d="M98.5681 15.8971V19.5866" stroke="white" stroke-width="1.5" stroke-linecap="round"/>
<path d="M101.028 14.4213V19.2177C102.258 17.2499 104.963 13.8309 105.947 15.8971C107.177 18.4798 107.177 19.5866 109.637 18.4798" stroke="white" stroke-width="1.5" stroke-linecap="round"/>
<path d="M116.606 14.7901C115.786 14.4211 113.654 13.9046 111.687 14.7901C109.227 15.897 108.817 19.5865 112.096 18.8486C114.72 18.2583 117.836 14.9131 119.066 13.3143C119.749 11.8385 120.951 8.37028 120.295 6.30413C119.476 3.72144 116.606 3.72144 116.606 7.04204C116.606 10.3626 115.786 19.5865 121.935 24.7519" stroke="white" stroke-width="1.5" stroke-linecap="round"/>
<path d="M121.935 16.266C121.935 17.4958 122.263 19.6604 123.575 18.4797C124.887 17.2991 125.215 16.7579 125.215 16.6349C125.078 17.7418 125.215 19.808 126.855 19.2176C128.495 18.6273 130.271 17.4958 130.954 17.0039" stroke="white" stroke-width="1.5" stroke-linecap="round"/>
<path d="M87.9094 12.9453C89.0026 15.282 91.763 20.2506 94.0587 21.4313C96.9283 22.9071 98.1582 22.5382 98.9781 21.8002" stroke="white" stroke-width="1.5" stroke-linecap="round"/>
</svg>
