<svg width="18" height="18" viewBox="0 0 18 18" fill="none" xmlns="http://www.w3.org/2000/svg">
<path d="M12.75 1.5H5.25C3.17893 1.5 1.5 3.17893 1.5 5.25V12.75C1.5 14.8211 3.17893 16.5 5.25 16.5H12.75C14.8211 16.5 16.5 14.8211 16.5 12.75V5.25C16.5 3.17893 14.8211 1.5 12.75 1.5Z" stroke="#5A5A5A" stroke-linecap="round" stroke-linejoin="round"/>
<path d="M11.9998 8.52773C12.0923 9.15191 11.9857 9.78939 11.6951 10.3495C11.4045 10.9096 10.9446 11.3638 10.381 11.6475C9.81736 11.9312 9.17862 12.0299 8.55562 11.9297C7.93262 11.8294 7.3571 11.5353 6.91091 11.0891C6.46472 10.6429 6.17058 10.0674 6.07033 9.44438C5.97008 8.82139 6.06883 8.18265 6.35253 7.61901C6.63622 7.05537 7.09042 6.59553 7.65052 6.30491C8.21062 6.01428 8.8481 5.90767 9.47228 6.00023C10.109 6.09464 10.6984 6.39132 11.1536 6.84646C11.6087 7.30159 11.9054 7.89103 11.9998 8.52773Z" stroke="#5A5A5A" stroke-linecap="round" stroke-linejoin="round"/>
<path d="M13.125 4.875H13.134" stroke="#5A5A5A" stroke-linecap="round" stroke-linejoin="round"/>
</svg>
